# xmcd
#
# Track frame offsets:
#	150
#	13200
#	30075
#	49125
#	64200
#	83550
#	103125
#	119325
#	132525
#	150825
#
# Disc length: 2177 seconds
#
# Revision: 1
# Processed by: cddbd v1.5.1PL0 Copyright (c) Steve Scherf et al.
# Submitted via: EasyCDDAExtractor 7.1.0.1
#
DISCID=78087f0a
DTITLE=Brooks and Dunn - Tribute to Brooks and Dunn
DYEAR=1900
DGENRE=
TTITLE0=My Next Broken Heart
TTITLE1=My Maria
TTITLE2=You're Gonna Miss Me When I'm Gone
TTITLE3=Honky Tonk Truth
TTITLE4=Red Dirt Road
TTITLE5=Neon Moon
TTITLE6=You Can't Take the Honky Tonk Out of the Girl
TTITLE7=We'll Burn That Bridge
TTITLE8=Mam Don't Get Dressed Up For Nothing
TTITLE9=Whiskey Under the Bridge
EXTD=
EXTT0=
EXTT1=
EXTT2=
EXTT3=
EXTT4=
EXTT5=
EXTT6=
EXTT7=
EXTT8=
EXTT9=
PLAYORDER=
